<svg width="20" height="20" viewBox="0 0 20 20" fill="none" xmlns="http://www.w3.org/2000/svg">
<path d="M4.76399 5.00008H4.77252M4.76399 15.0001H4.77252M3.05677 1.66675H16.7145C17.6574 1.66675 18.4217 2.41294 18.4217 3.33341V6.66675C18.4217 7.58722 17.6574 8.33342 16.7145 8.33342H3.05677C2.1139 8.33342 1.34955 7.58722 1.34955 6.66675V3.33341C1.34955 2.41294 2.1139 1.66675 3.05677 1.66675ZM3.05677 11.6667H16.7145C17.6574 11.6667 18.4217 12.4129 18.4217 13.3334V16.6667C18.4217 17.5872 17.6574 18.3334 16.7145 18.3334H3.05677C2.1139 18.3334 1.34955 17.5872 1.34955 16.6667V13.3334C1.34955 12.4129 2.1139 11.6667 3.05677 11.6667Z" stroke="#6A994E" stroke-width="2" stroke-linecap="round" stroke-linejoin="round"/>
</svg>
