<svg width="20" height="20" viewBox="0 0 20 20" fill="none" xmlns="http://www.w3.org/2000/svg">
<g clip-path="url(#clip0_208_228)">
<path d="M5.00001 5.00008H5.00834M5.00001 15.0001H5.00834M3.33334 1.66675H16.6667C17.5871 1.66675 18.3333 2.41294 18.3333 3.33341V6.66675C18.3333 7.58722 17.5871 8.33342 16.6667 8.33342H3.33334C2.41286 8.33342 1.66667 7.58722 1.66667 6.66675V3.33341C1.66667 2.41294 2.41286 1.66675 3.33334 1.66675ZM3.33334 11.6667H16.6667C17.5871 11.6667 18.3333 12.4129 18.3333 13.3334V16.6667C18.3333 17.5872 17.5871 18.3334 16.6667 18.3334H3.33334C2.41286 18.3334 1.66667 17.5872 1.66667 16.6667V13.3334C1.66667 12.4129 2.41286 11.6667 3.33334 11.6667Z" stroke="#7C7C7C" stroke-width="1.5" stroke-linecap="round" stroke-linejoin="round"/>
</g>
<defs>
<clipPath id="clip0_208_228">
<rect width="20" height="20" fill="white"/>
</clipPath>
</defs>
</svg>
