<svg width="21" height="20" viewBox="0 0 21 20" fill="none" xmlns="http://www.w3.org/2000/svg">
<path d="M1.7845 18.7H7.18712V12.1001C7.18712 11.8028 7.30077 11.5537 7.52807 11.3526C7.7544 11.1507 8.03487 11.0497 8.36949 11.0497H12.7595C13.0941 11.0497 13.3751 11.1507 13.6024 11.3526C13.8287 11.5537 13.9419 11.8028 13.9419 12.1001V18.7H19.3445V7.40071C19.3445 7.26725 19.3118 7.14592 19.2464 7.03672C19.1811 6.92753 19.0918 6.8322 18.9786 6.75073L11.1001 1.47546C10.9498 1.35933 10.7713 1.30127 10.5645 1.30127C10.3577 1.30127 10.1796 1.35933 10.0304 1.47546L2.15033 6.75073C2.03814 6.83393 1.94888 6.92926 1.88254 7.03672C1.8162 7.14419 1.78352 7.26552 1.7845 7.40071V18.7ZM0.321167 18.7V7.40071C0.321167 7.06792 0.405065 6.7529 0.57286 6.45564C0.740655 6.15838 0.971861 5.91355 1.26648 5.72116L9.14652 0.41989C9.55918 0.139964 10.0304 0 10.5601 0C11.0898 0 11.5639 0.139964 11.9825 0.41989L19.8625 5.71986C20.1581 5.91225 20.3893 6.15751 20.5561 6.45564C20.7239 6.7529 20.8078 7.06792 20.8078 7.40071V18.7C20.8078 19.0484 20.662 19.3522 20.3703 19.6113C20.0786 19.8704 19.7366 20 19.3445 20H13.6609C13.3253 20 13.0443 19.8995 12.818 19.6984C12.5917 19.4965 12.4785 19.2469 12.4785 18.9496V12.351H8.65045V18.9496C8.65045 19.2478 8.53728 19.4973 8.31095 19.6984C8.08463 19.8995 7.80415 20 7.46954 20H1.7845C1.39233 20 1.05039 19.8704 0.758703 19.6113C0.467012 19.3522 0.321167 19.0484 0.321167 18.7Z" fill="#7C7C7C"/>
</svg>
