<svg width="16" height="18" viewBox="0 0 16 18" fill="none" xmlns="http://www.w3.org/2000/svg">
<path d="M10.2917 3.95833L5.70833 7.16667M10.2917 14.0417L5.70833 10.8333M5.70833 9C5.70833 9.60779 5.46689 10.1907 5.03712 10.6205C4.60735 11.0502 4.02445 11.2917 3.41667 11.2917C2.80888 11.2917 2.22598 11.0502 1.79621 10.6205C1.36644 10.1907 1.125 9.60779 1.125 9C1.125 8.39221 1.36644 7.80932 1.79621 7.37955C2.22598 6.94978 2.80888 6.70833 3.41667 6.70833C4.02445 6.70833 4.60735 6.94978 5.03712 7.37955C5.46689 7.80932 5.70833 8.39221 5.70833 9ZM14.875 14.9583C14.875 15.5661 14.6336 16.149 14.2038 16.5788C13.774 17.0086 13.1911 17.25 12.5833 17.25C11.9755 17.25 11.3927 17.0086 10.9629 16.5788C10.5331 16.149 10.2917 15.5661 10.2917 14.9583C10.2917 14.3505 10.5331 13.7677 10.9629 13.3379C11.3927 12.9081 11.9755 12.6667 12.5833 12.6667C13.1911 12.6667 13.774 12.9081 14.2038 13.3379C14.6336 13.7677 14.875 14.3505 14.875 14.9583ZM14.875 3.04167C14.875 3.64945 14.6336 4.23235 14.2038 4.66212C13.774 5.09189 13.1911 5.33333 12.5833 5.33333C11.9755 5.33333 11.3927 5.09189 10.9629 4.66212C10.5331 4.23235 10.2917 3.64945 10.2917 3.04167C10.2917 2.43388 10.5331 1.85098 10.9629 1.42121C11.3927 0.991443 11.9755 0.75 12.5833 0.75C13.1911 0.75 13.774 0.991443 14.2038 1.42121C14.6336 1.85098 14.875 2.43388 14.875 3.04167Z" stroke="#333333" stroke-width="1.5" stroke-linecap="round" stroke-linejoin="round"/>
</svg>
